<svg xmlns="http://www.w3.org/2000/svg" width="237" height="55" viewBox="0 0 237 55" fill="none"><path fill-rule="evenodd" clip-rule="evenodd" d="M14.3908 21.5991L23.5706 0H40.2386L64.2687 55H28.4706L18.4887 31.3252H13.4108L23.287 55H0L11.8361 27.3458H16.7727L14.3908 21.5991Z" fill="white"></path><path fill-rule="evenodd" clip-rule="evenodd" d="M74.6973 54.9998V27.1366L92.5607 54.9998H74.6973ZM74.7653 18.6915V0.415771H99.5284L116.027 26.3751L97.8124 54.5839L74.7653 18.6915ZM118.089 23.1552L132.729 0.415771H149.441V54.9998H118.089V23.1552Z" fill="white"></path><path fill-rule="evenodd" clip-rule="evenodd" d="M168.029 55H199.724V0.415894H168.029V55ZM204.381 55V0.415924H208.339C213.286 0.415924 217.936 1.6617 222.28 4.15426C226.646 6.64581 230.098 10.0044 232.645 14.227C235.213 18.4726 236.5 22.9715 236.5 27.7255C236.5 31.3252 235.8 34.7863 234.399 38.1087C232.95 41.4793 230.929 44.4199 228.337 46.9366C225.767 49.4061 222.746 51.3672 219.265 52.8219C215.764 54.2746 212.356 55 209.037 55H204.381Z" fill="white"></path></svg>